<?xml version="1.0" standalone="no"?>
<!DOCTYPE svg PUBLIC "-//W3C//DTD SVG 20010904//EN"
 "http://www.w3.org/TR/2001/REC-SVG-20010904/DTD/svg10.dtd">
<svg version="1.0" xmlns="http://www.w3.org/2000/svg"
 width="512.000000pt" height="512.000000pt" viewBox="0 0 512.000000 512.000000"
 preserveAspectRatio="xMidYMid meet">

<g transform="translate(0.000000,512.000000) scale(0.100000,-0.100000)"
fill="#000000" stroke="none">
<path d="M1673 4550 l-32 -28 34 -39 33 -38 29 21 c15 12 28 25 28 30 0 6 -13
26 -30 46 l-30 36 -32 -28z"/>
<path d="M3384 4558 c-48 -55 -49 -57 -24 -83 31 -33 40 -32 74 11 l29 36 -30
29 -29 30 -20 -23z"/>
<path d="M3083 4226 l-202 -222 -88 43 c-165 81 -318 82 -480 3 -44 -22 -83
-40 -86 -40 -3 0 -94 97 -202 215 -108 118 -200 215 -205 215 -5 0 -21 -11
-36 -24 l-28 -23 202 -221 202 -221 -60 -63 c-81 -84 -151 -189 -216 -323 -49
-102 -113 -277 -129 -352 l-7 -33 802 0 802 0 -7 38 c-14 79 -80 258 -136 368
-65 130 -123 215 -206 304 l-56 61 30 32 c76 80 373 410 371 411 -2 0 -17 13
-33 28 l-30 26 -202 -222z m-744 -522 c55 -52 13 -144 -65 -144 -72 0 -110 84
-64 143 34 42 86 43 129 1z m551 0 c55 -53 13 -144 -66 -144 -93 0 -117 128
-31 165 38 17 64 11 97 -21z"/>
<path d="M716 3174 c-337 -63 -571 -222 -637 -435 -24 -77 -24 -131 0 -208 39
-125 134 -230 288 -316 l84 -47 42 48 c241 279 622 454 986 454 l88 0 13 148
c21 235 27 210 -60 254 -83 41 -170 70 -275 94 -100 23 -424 28 -529 8z"/>
<path d="M3880 3171 c-117 -23 -202 -51 -300 -100 -87 -43 -81 -18 -60 -253
l13 -148 88 0 c113 0 220 -15 328 -46 274 -79 477 -205 653 -403 l48 -53 83
47 c154 86 249 191 288 316 24 77 24 131 0 208 -60 194 -257 342 -556 418
-138 35 -439 42 -585 14z"/>
<path d="M1686 2809 c-3 -17 -6 -78 -6 -135 l0 -104 876 0 877 0 -6 83 c-4 45
-7 106 -7 135 l0 52 -864 0 -863 0 -7 -31z"/>
<path d="M1370 2613 c-73 -7 -236 -46 -319 -75 -180 -64 -346 -165 -479 -292
-121 -116 -125 -125 -120 -249 5 -123 27 -177 103 -253 171 -172 504 -177 853
-14 46 22 119 63 163 92 72 47 80 56 75 78 -47 214 -76 451 -76 616 0 87 -1
92 -22 98 -24 6 -116 6 -178 -1z"/>
<path d="M3549 2614 c-13 -4 -17 -30 -22 -162 -6 -169 -26 -331 -58 -481 -12
-52 -17 -97 -12 -100 169 -125 376 -215 564 -246 118 -19 187 -19 285 0 102
19 177 57 239 119 76 77 98 130 103 254 4 99 3 104 -23 142 -72 104 -261 253
-423 334 -89 45 -249 99 -355 120 -79 17 -269 29 -298 20z"/>
<path d="M1700 2209 c0 -20 35 -206 46 -242 5 -16 50 -17 807 -15 l802 3 22
105 c12 58 22 120 23 138 l0 32 -850 0 -850 0 0 -21z"/>
<path d="M1877 1604 c-4 -4 10 -37 30 -73 158 -286 366 -463 573 -488 l47 -5
0 -197 c0 -198 13 -306 34 -269 15 27 30 248 23 348 -4 52 -6 99 -6 105 1 5
32 15 69 22 40 7 103 30 153 55 145 73 306 251 404 445 14 29 26 55 26 58 0 7
-1345 6 -1353 -1z"/>
</g>
</svg>
